<?xml version="1.0" encoding="utf-8"?>
<!-- Generator: Adobe Illustrator 19.0.1, SVG Export Plug-In . SVG Version: 6.00 Build 0)  -->
<svg version="1.1" id="Слой_1" xmlns="http://www.w3.org/2000/svg" xmlns:xlink="http://www.w3.org/1999/xlink" x="0px" y="0px"
	 viewBox="0 0 8408.0019531 1935.5316162" style="enable-background:new 0 0 8408.0019531 1935.5316162;" xml:space="preserve">
<style type="text/css">
	.st0{fill:url(#SVGID_1_);}
	.st1{fill:url(#SVGID_2_);}
	.st2{fill:url(#SVGID_3_);}
	.st3{fill:url(#SVGID_4_);}
	.st4{fill:url(#SVGID_5_);}
	.st5{fill:url(#SVGID_6_);}
	.st6{fill:url(#SVGID_7_);}
	.st7{fill:url(#SVGID_8_);}
	.st8{fill:url(#SVGID_9_);}
	.st9{fill:url(#SVGID_10_);}
	.st10{fill:url(#SVGID_11_);}
	.st11{fill:url(#SVGID_12_);}
	.st12{fill:url(#SVGID_13_);}
	.st13{fill:url(#SVGID_14_);}
	.st14{fill:url(#SVGID_15_);}
	.st15{fill:url(#SVGID_16_);}
	.st16{fill:url(#SVGID_17_);}
	.st17{fill:url(#SVGID_18_);}
</style>
<g>
	<g>
		<g>
			
				<linearGradient id="SVGID_1_" gradientUnits="userSpaceOnUse" x1="336.1344604" y1="976.3528442" x2="8275.5771484" y2="976.3528442">
				<stop  offset="0" style="stop-color:#EA422A"/>
				<stop  offset="0.0947882" style="stop-color:#EC5128"/>
				<stop  offset="0.5234419" style="stop-color:#F69020"/>
				<stop  offset="0.8369945" style="stop-color:#FDB71B"/>
				<stop  offset="1" style="stop-color:#FFC619"/>
			</linearGradient>
			<polygon class="st0" points="887.1869507,920.5018311 1233.7209473,268.3897095 1053.1403809,268.3897095 
				794.1038818,755.6131592 519.3754883,268.3897095 336.1344604,268.3897095 705.2753296,922.8961182 798.3583984,1087.786377 
				1137.1804199,1684.3155518 1320.4213867,1684.3155518 			"/>
			
				<linearGradient id="SVGID_2_" gradientUnits="userSpaceOnUse" x1="336.1344604" y1="976.3528442" x2="8275.5771484" y2="976.3528442">
				<stop  offset="0" style="stop-color:#EA422A"/>
				<stop  offset="0.0947882" style="stop-color:#EC5128"/>
				<stop  offset="0.5234419" style="stop-color:#F69020"/>
				<stop  offset="0.8369945" style="stop-color:#FDB71B"/>
				<stop  offset="1" style="stop-color:#FFC619"/>
			</linearGradient>
			<polygon class="st1" points="887.1869507,920.5018311 1233.7209473,268.3897095 1053.1403809,268.3897095 
				794.1038818,755.6131592 519.3754883,268.3897095 336.1344604,268.3897095 705.2753296,922.8961182 798.3583984,1087.786377 
				1137.1804199,1684.3155518 1320.4213867,1684.3155518 			"/>
		</g>
		<g>
			
				<linearGradient id="SVGID_3_" gradientUnits="userSpaceOnUse" x1="336.1344604" y1="976.3528442" x2="8275.5771484" y2="976.3528442">
				<stop  offset="0" style="stop-color:#EA422A"/>
				<stop  offset="0.0947882" style="stop-color:#EC5128"/>
				<stop  offset="0.5234419" style="stop-color:#F69020"/>
				<stop  offset="0.8369945" style="stop-color:#FDB71B"/>
				<stop  offset="1" style="stop-color:#FFC619"/>
			</linearGradient>
			<polygon class="st2" points="1876.791626,268.3897095 1876.791626,623.5566406 2111.8935547,1156.9332275 
				1702.59375,1156.9332275 1702.59375,1316.5042725 2178.9138184,1316.5042725 2333.6962891,1684.3156738 
				2506.8310547,1684.3156738 			"/>
			
				<linearGradient id="SVGID_4_" gradientUnits="userSpaceOnUse" x1="336.1344604" y1="976.3528442" x2="8275.5771484" y2="976.3528442">
				<stop  offset="0" style="stop-color:#EA422A"/>
				<stop  offset="0.0947882" style="stop-color:#EC5128"/>
				<stop  offset="0.5234419" style="stop-color:#F69020"/>
				<stop  offset="0.8369945" style="stop-color:#FDB71B"/>
				<stop  offset="1" style="stop-color:#FFC619"/>
			</linearGradient>
			<polygon class="st3" points="1876.791626,268.3897095 1876.791626,623.5566406 2111.8935547,1156.9332275 
				1702.59375,1156.9332275 1702.59375,1316.5042725 2178.9138184,1316.5042725 2333.6962891,1684.3156738 
				2506.8310547,1684.3156738 			"/>
		</g>
		<g>
			
				<linearGradient id="SVGID_5_" gradientUnits="userSpaceOnUse" x1="336.1344604" y1="976.3528442" x2="8275.5771484" y2="976.3528442">
				<stop  offset="0" style="stop-color:#EA422A"/>
				<stop  offset="0.0947882" style="stop-color:#EC5128"/>
				<stop  offset="0.5234419" style="stop-color:#F69020"/>
				<stop  offset="0.8369945" style="stop-color:#FDB71B"/>
				<stop  offset="1" style="stop-color:#FFC619"/>
			</linearGradient>
			<polygon class="st4" points="7645.5375977,268.3897095 7645.5375977,623.5566406 7880.6391602,1156.9332275 
				7471.3393555,1156.9332275 7471.3393555,1316.5042725 7947.659668,1316.5042725 8102.4418945,1684.3156738 
				8275.5771484,1684.3156738 			"/>
			
				<linearGradient id="SVGID_6_" gradientUnits="userSpaceOnUse" x1="336.1344604" y1="976.3528442" x2="8275.5771484" y2="976.3528442">
				<stop  offset="0" style="stop-color:#EA422A"/>
				<stop  offset="0.0947882" style="stop-color:#EC5128"/>
				<stop  offset="0.5234419" style="stop-color:#F69020"/>
				<stop  offset="0.8369945" style="stop-color:#FDB71B"/>
				<stop  offset="1" style="stop-color:#FFC619"/>
			</linearGradient>
			<polygon class="st5" points="7645.5375977,268.3897095 7645.5375977,623.5566406 7880.6391602,1156.9332275 
				7471.3393555,1156.9332275 7471.3393555,1316.5042725 7947.659668,1316.5042725 8102.4418945,1684.3156738 
				8275.5771484,1684.3156738 			"/>
		</g>
		<g>
			<g>
				
					<linearGradient id="SVGID_7_" gradientUnits="userSpaceOnUse" x1="336.1344604" y1="976.3528442" x2="8275.5771484" y2="976.3528442">
					<stop  offset="0" style="stop-color:#EA422A"/>
					<stop  offset="0.0947882" style="stop-color:#EC5128"/>
					<stop  offset="0.5234419" style="stop-color:#F69020"/>
					<stop  offset="0.8369945" style="stop-color:#FDB71B"/>
					<stop  offset="1" style="stop-color:#FFC619"/>
				</linearGradient>
				<rect x="3932.855957" y="268.3897095" class="st6" width="159.5709381" height="1415.9261475"/>
			</g>
			<g>
				
					<linearGradient id="SVGID_8_" gradientUnits="userSpaceOnUse" x1="336.1344604" y1="976.3528442" x2="8275.5771484" y2="976.3528442">
					<stop  offset="0" style="stop-color:#EA422A"/>
					<stop  offset="0.0947882" style="stop-color:#EC5128"/>
					<stop  offset="0.5234419" style="stop-color:#F69020"/>
					<stop  offset="0.8369945" style="stop-color:#FDB71B"/>
					<stop  offset="1" style="stop-color:#FFC619"/>
				</linearGradient>
				<rect x="3932.855957" y="268.3897095" class="st7" width="159.5709381" height="1415.9261475"/>
			</g>
			<g>
				
					<linearGradient id="SVGID_9_" gradientUnits="userSpaceOnUse" x1="336.1344604" y1="976.3528442" x2="8275.5771484" y2="976.3528442">
					<stop  offset="0" style="stop-color:#EA422A"/>
					<stop  offset="0.0947882" style="stop-color:#EC5128"/>
					<stop  offset="0.5234419" style="stop-color:#F69020"/>
					<stop  offset="0.8369945" style="stop-color:#FDB71B"/>
					<stop  offset="1" style="stop-color:#FFC619"/>
				</linearGradient>
				<rect x="3932.855957" y="268.3897095" class="st8" width="159.5709381" height="1415.9261475"/>
			</g>
		</g>
		<g>
			<g>
				
					<linearGradient id="SVGID_10_" gradientUnits="userSpaceOnUse" x1="336.1344604" y1="976.3528442" x2="8275.5771484" y2="976.3528442">
					<stop  offset="0" style="stop-color:#EA422A"/>
					<stop  offset="0.0947882" style="stop-color:#EC5128"/>
					<stop  offset="0.5234419" style="stop-color:#F69020"/>
					<stop  offset="0.8369945" style="stop-color:#FDB71B"/>
					<stop  offset="1" style="stop-color:#FFC619"/>
				</linearGradient>
				<polygon class="st9" points="4474.5991211,1684.3156738 4661.2729492,1684.3156738 5524.4467773,268.3897095 
					4488.4047852,268.3897095 4488.4047852,427.9606323 5240.8862305,427.9606323 				"/>
			</g>
			<g>
				
					<linearGradient id="SVGID_11_" gradientUnits="userSpaceOnUse" x1="336.1344604" y1="976.3528442" x2="8275.5771484" y2="976.3528442">
					<stop  offset="0" style="stop-color:#EA422A"/>
					<stop  offset="0.0947882" style="stop-color:#EC5128"/>
					<stop  offset="0.5234419" style="stop-color:#F69020"/>
					<stop  offset="0.8369945" style="stop-color:#FDB71B"/>
					<stop  offset="1" style="stop-color:#FFC619"/>
				</linearGradient>
				<polygon class="st10" points="4474.5991211,1684.3156738 4661.2729492,1684.3156738 5524.4467773,268.3897095 
					4488.4047852,268.3897095 4488.4047852,427.9606323 5240.8862305,427.9606323 				"/>
			</g>
			<g>
				
					<linearGradient id="SVGID_12_" gradientUnits="userSpaceOnUse" x1="336.1344604" y1="976.3528442" x2="8275.5771484" y2="976.3528442">
					<stop  offset="0" style="stop-color:#EA422A"/>
					<stop  offset="0.0947882" style="stop-color:#EC5128"/>
					<stop  offset="0.5234419" style="stop-color:#F69020"/>
					<stop  offset="0.8369945" style="stop-color:#FDB71B"/>
					<stop  offset="1" style="stop-color:#FFC619"/>
				</linearGradient>
				<polygon class="st11" points="4474.5991211,1684.3156738 4661.2729492,1684.3156738 5524.4467773,268.3897095 
					4488.4047852,268.3897095 4488.4047852,427.9606323 5240.8862305,427.9606323 				"/>
			</g>
		</g>
		<g>
			<g>
				
					<linearGradient id="SVGID_13_" gradientUnits="userSpaceOnUse" x1="336.1344604" y1="976.3528442" x2="8275.5771484" y2="976.3528442">
					<stop  offset="0" style="stop-color:#EA422A"/>
					<stop  offset="0.0947882" style="stop-color:#EC5128"/>
					<stop  offset="0.5234419" style="stop-color:#F69020"/>
					<stop  offset="0.8369945" style="stop-color:#FDB71B"/>
					<stop  offset="1" style="stop-color:#FFC619"/>
				</linearGradient>
				<polygon class="st12" points="5785.9707031,1692.90271 5928.5834961,788.953064 6356.8071289,1716.1734619 
					6785.0307617,788.953064 6927.6435547,1692.90271 7089.1674805,1692.90271 6859.4140625,236.5322113 6356.8071289,1327.3572998 
					5854.2001953,236.5322113 5624.4467773,1692.90271 				"/>
			</g>
			<g>
				
					<linearGradient id="SVGID_14_" gradientUnits="userSpaceOnUse" x1="336.1344604" y1="976.3528442" x2="8275.5771484" y2="976.3528442">
					<stop  offset="0" style="stop-color:#EA422A"/>
					<stop  offset="0.0947882" style="stop-color:#EC5128"/>
					<stop  offset="0.5234419" style="stop-color:#F69020"/>
					<stop  offset="0.8369945" style="stop-color:#FDB71B"/>
					<stop  offset="1" style="stop-color:#FFC619"/>
				</linearGradient>
				<polygon class="st13" points="5785.9707031,1692.90271 5928.5834961,788.953064 6356.8071289,1716.1734619 
					6785.0307617,788.953064 6927.6435547,1692.90271 7089.1674805,1692.90271 6859.4140625,236.5322113 6356.8071289,1327.3572998 
					5854.2001953,236.5322113 5624.4467773,1692.90271 				"/>
			</g>
			<g>
				
					<linearGradient id="SVGID_15_" gradientUnits="userSpaceOnUse" x1="336.1344604" y1="976.3528442" x2="8275.5771484" y2="976.3528442">
					<stop  offset="0" style="stop-color:#EA422A"/>
					<stop  offset="0.0947882" style="stop-color:#EC5128"/>
					<stop  offset="0.5234419" style="stop-color:#F69020"/>
					<stop  offset="0.8369945" style="stop-color:#FDB71B"/>
					<stop  offset="1" style="stop-color:#FFC619"/>
				</linearGradient>
				<polygon class="st14" points="5785.9707031,1692.90271 5928.5834961,788.953064 6356.8071289,1716.1734619 
					6785.0307617,788.953064 6927.6435547,1692.90271 7089.1674805,1692.90271 6859.4140625,236.5322113 6356.8071289,1327.3572998 
					5854.2001953,236.5322113 5624.4467773,1692.90271 				"/>
			</g>
		</g>
		<g>
			<g>
				
					<linearGradient id="SVGID_16_" gradientUnits="userSpaceOnUse" x1="336.1344604" y1="976.3528442" x2="8275.5771484" y2="976.3528442">
					<stop  offset="0" style="stop-color:#EA422A"/>
					<stop  offset="0.0947882" style="stop-color:#EC5128"/>
					<stop  offset="0.5234419" style="stop-color:#F69020"/>
					<stop  offset="0.8369945" style="stop-color:#FDB71B"/>
					<stop  offset="1" style="stop-color:#FFC619"/>
				</linearGradient>
				<path class="st15" d="M3057.6506348,901.3892212h-253.314209l538.4057617,782.9264526h207.9414063l-424.5837402-617.4155273
					c189.2709961-32.6002197,333.7270508-197.9159546,333.7270508-396.3478394
					c0-221.7595825-180.416748-402.162323-402.1762695-402.162323h-168.9550781v171.339386h168.9550781
					c127.2773438,0,230.8369141,103.5454712,230.8369141,230.822937S3184.9279785,901.3892212,3057.6506348,901.3892212z"/>
			</g>
			<g>
				
					<linearGradient id="SVGID_17_" gradientUnits="userSpaceOnUse" x1="336.1344604" y1="976.3528442" x2="8275.5771484" y2="976.3528442">
					<stop  offset="0" style="stop-color:#EA422A"/>
					<stop  offset="0.0947882" style="stop-color:#EC5128"/>
					<stop  offset="0.5234419" style="stop-color:#F69020"/>
					<stop  offset="0.8369945" style="stop-color:#FDB71B"/>
					<stop  offset="1" style="stop-color:#FFC619"/>
				</linearGradient>
				<path class="st16" d="M3057.6506348,901.3892212h-253.314209l538.4057617,782.9264526h207.9414063l-424.5837402-617.4155273
					c189.2709961-32.6002197,333.7270508-197.9159546,333.7270508-396.3478394
					c0-221.7595825-180.416748-402.162323-402.1762695-402.162323h-168.9550781v171.339386h168.9550781
					c127.2773438,0,230.8369141,103.5454712,230.8369141,230.822937S3184.9279785,901.3892212,3057.6506348,901.3892212z"/>
			</g>
			<g>
				
					<linearGradient id="SVGID_18_" gradientUnits="userSpaceOnUse" x1="336.1344604" y1="976.3528442" x2="8275.5771484" y2="976.3528442">
					<stop  offset="0" style="stop-color:#EA422A"/>
					<stop  offset="0.0947882" style="stop-color:#EC5128"/>
					<stop  offset="0.5234419" style="stop-color:#F69020"/>
					<stop  offset="0.8369945" style="stop-color:#FDB71B"/>
					<stop  offset="1" style="stop-color:#FFC619"/>
				</linearGradient>
				<path class="st17" d="M3057.6506348,901.3892212h-253.314209l538.4057617,782.9264526h207.9414063l-424.5837402-617.4155273
					c189.2709961-32.6002197,333.7270508-197.9159546,333.7270508-396.3478394
					c0-221.7595825-180.416748-402.162323-402.1762695-402.162323h-168.9550781v171.339386h168.9550781
					c127.2773438,0,230.8369141,103.5454712,230.8369141,230.822937S3184.9279785,901.3892212,3057.6506348,901.3892212z"/>
			</g>
		</g>
	</g>
</g>
</svg>
